<svg width="396" height="106" viewBox="0 0 396 106" fill="none" xmlns="http://www.w3.org/2000/svg">
<path d="M101.46 65.4008C106.931 60.3566 111.027 53.8219 115.309 47.877C121.878 38.7589 138.545 19.3539 149.195 16.1509C148.11 18.1032 146.434 19.7622 145.012 21.4739C142.986 23.9109 140.971 26.4279 139.098 28.9838C135.207 34.2949 115.884 63.8443 117.053 68.7669C117.091 68.9273 117.17 69.0644 117.27 69.1931C121.174 70.9272 133.633 53.7287 135.879 50.457C137.757 50.5518 138.551 50.5852 140.435 50.1347C137.621 54.9157 134.257 59.2561 131.386 63.9925C130.61 65.2722 129.494 66.8721 129.769 68.428C130.119 68.9588 129.928 68.8141 130.542 69.0043C134.033 68.5675 140.473 59.7505 142.856 56.9516C145.479 53.8712 151.128 49.3113 155.457 50.0022C155.197 50.2879 155.1 50.4181 154.756 50.6032C153.744 51.0725 152.159 51.934 151.349 52.6588C148.916 54.8384 141.031 65.2925 141.832 68.3988C143.285 70.012 145.659 67.6259 146.838 66.5212C150.569 63.0247 154.794 57.3377 156.031 52.3456C156.251 51.4243 156.096 51.7288 156.767 51.0535C157.123 52.1654 156.852 53.1631 156.674 54.3353C161.193 46.7241 167.282 38.6797 172.081 31.0288C174.114 31.1503 174.621 31.0973 176.631 30.4247C174.998 33.4415 172.401 37.0364 170.45 39.8734C167.286 44.5045 164.159 49.1604 161.068 53.8408C159.435 56.2698 152.369 66.2225 152.872 68.6106C154.466 70.0159 158.612 64.8579 159.643 63.7211C163.263 59.7132 166.129 54.9923 170.071 51.2866C170.605 50.7837 172.287 49.9517 173.003 49.9769C176.788 50.1105 174.62 56.2378 173.998 57.988C175.219 56.0034 176.988 54.4326 178.633 52.8002C179.667 51.774 182.969 49.5625 184.353 49.9378C188.547 51.0759 185.6 57.1232 184.019 59.3913C182.707 61.41 177.917 66.9065 178.488 68.7776C179.024 69.0292 179.433 68.9356 179.985 68.7391C184.412 67.1644 193.315 54.5403 195.884 50.2713C197.787 50.481 198.522 50.474 200.457 50.0049C198.309 53.3851 196.14 56.7502 193.943 60.0999C192.52 62.2841 189.603 66.0185 189.885 68.6097C190.563 69.578 192.282 68.1464 193.024 67.5928C199.825 62.5191 202.923 53.6116 211.22 50.4637C215.418 48.895 216.618 49.5341 216.178 53.8374C216.899 52.6729 217.885 50.9676 218.654 49.8891C220.538 50.1247 221.456 49.9502 223.311 49.5699C220.839 52.4184 213.463 64.4172 211.794 67.8388C211.871 68.1448 211.885 68.3236 212.096 68.5576C209.688 70.4252 206.805 77.3676 204.825 80.1865C201.113 85.5728 196.662 92.0345 190.627 94.9491C187.98 96.0257 185.708 94.5096 186.402 91.5799C188.5 82.7183 197.979 77.3483 204.864 72.3881C205.562 71.8844 209.307 65.3678 209.714 64.3443L209.584 64.2778C207.757 66.4908 203.493 71.6945 200.285 69.1696C198.526 67.7858 199.019 64.5018 199.27 62.5702C197.004 65.0438 193.601 69.4203 190.044 69.9256C188.372 70.1633 187.085 68.159 187.13 66.628C187.187 64.6875 188.17 62.9389 189.007 61.2158C187.417 63.1673 185.536 65.2914 183.726 67.0404C181.412 69.2768 178.812 71.4456 176.178 68.488C176.15 68.3458 176.062 67.7317 176.02 67.6261C174.079 62.7694 184.453 54.5484 184.005 51.4533C182.473 49.8687 178.59 54.1426 177.448 55.2061C172.928 59.4174 170.189 64.8859 166.686 69.818C165.131 69.6584 163.571 69.7815 162.016 69.9397C163.989 66.9705 173.402 54.0544 172.79 51.3647C172.756 51.2152 172.574 51.1438 172.446 51.0614C168.348 51.4792 158.59 69.4186 153.204 70.1144C149.259 70.6239 150.319 65.3297 151.014 63.3097C149.025 65.4113 147.055 67.8114 144.573 69.3344C143.122 70.2246 141.434 70.5598 140.11 69.2397C138.312 67.4471 138.972 64.7142 139.473 62.5224C136.919 65.1803 134.56 68.222 131.179 69.8438C128.743 71.0121 127.024 69.1273 127.025 66.7926C127.025 64.7737 128.16 62.3584 129.08 60.5807C126.614 63.5576 121.488 69.5753 117.589 70.5457C115.866 70.9747 114.117 68.5954 114.26 66.8922C115.561 51.4526 128.535 38.0944 137.954 26.6551C139.472 24.8553 143.914 20.1259 145.161 19.107C137.974 23.0113 128.602 32.9556 123.379 39.2508C121.183 41.8917 119.047 44.5815 116.971 47.3182C114.009 51.2765 110.919 55.8525 107.925 59.6817C105.981 62.1682 98.1177 70.6505 95.6564 71.4214L95.2833 71.2815L95.5395 71.4535L95.2773 71.1175C95.6421 69.3083 97.5771 67.4473 98.536 65.8388C102.605 59.0122 104.622 51.0005 108.156 43.9169C111.271 37.7714 114.961 31.935 119.177 26.4863C120.636 24.5669 122.674 22.3515 123.974 20.5112C116.322 26.4497 110.19 34.45 104.721 42.2323C94.1107 57.3282 82.4316 72.7301 65.6393 81.1302C52.347 87.7794 37.2289 86.3697 30.4416 72.0605C30.2231 71.9713 30.0044 71.8823 29.7859 71.7931L29.9321 71.1003L30.1111 70.914C29.9247 70.0469 29.6341 69.2207 29.4579 68.3576C25.7572 50.2208 43.823 35.452 59.738 32.0389L60.095 32.0035C59.8815 31.7764 59.8556 31.7458 59.7827 31.4437L60.2767 31.2091L60.3664 31.2338C61.6811 31.593 63.4151 31.5027 64.7947 31.4648C67.8614 31.3803 70.9341 32.1954 73.4104 34.0388C74.7009 34.9993 75.3293 36.9404 76.4431 38.0857C77.7373 39.4167 79.2495 40.5495 80.6334 41.7864C83.6854 44.4761 86.2745 47.6493 88.297 51.1792C88.8055 52.0557 89.1563 52.8609 89.5341 53.7971C88.5981 52.9542 87.8687 51.84 87.1954 50.7757C84.5509 46.5957 81.1676 42.5739 76.9737 39.8868C80.2741 51.651 70.2612 63.9124 59.2132 66.821C56.518 67.5305 52.8954 68.0172 50.3814 66.5856C50.117 66.4332 49.8585 66.2707 49.6064 66.0989C43.7445 69.243 38.6176 71.2208 31.9061 71.9684C32.9196 74.2658 34.0587 76.6624 35.9318 78.3715C52.2067 93.2227 73.2047 75.9128 84.366 64.3043C88.0907 60.3833 91.6742 56.3301 95.1094 52.153C102.783 42.7621 109.734 32.578 118.51 24.121C119.706 22.9678 125.155 17.9235 126.801 18.4331C126.855 19.3296 125.4 20.7346 124.829 21.5228C123.784 22.9914 122.824 24.5189 121.954 26.0981C121.134 27.5596 120.299 29.0285 119.512 30.5077C116.135 36.858 113.761 43.7776 110.51 50.1956C108.88 53.4027 107.103 56.533 105.185 59.5766C104.115 61.268 102.368 63.7549 101.46 65.4008ZM49.0141 65.4829C47.1337 62.6584 43.8452 58.1302 47.4187 55.2275C49.9999 54.7059 50.5977 55.2047 51.6291 57.5508C55.3201 52.7923 59.0686 57.459 55.0769 61.5976C54.2551 62.4497 50.881 65.1291 50.6364 65.5206C51.2571 67.1288 56.9898 66.1444 58.4365 65.4606C67.6493 61.1057 77.825 49.8935 75.6915 39.0264C72.8845 36.7857 64.066 32.0313 60.595 32.735C44.9719 35.7292 27.4174 54.2892 31.688 71.1504C38.0075 70.6092 43.5486 68.582 49.0141 65.4829ZM187.835 94.3178C189.13 94.5257 189.937 94.1042 190.973 93.3481C192.359 92.3361 193.58 90.9875 194.628 89.6362C196.263 87.5289 203.64 75.9883 204.245 73.8147L204.091 73.6899C198.916 77.5324 188.178 85.0439 187.21 91.7403C187.084 92.6123 187.102 93.3818 187.663 94.109C187.718 94.1802 187.775 94.2499 187.835 94.3178ZM213.689 50.6577C209.423 52.8495 203.557 61.4119 202.06 66.0225C201.797 66.832 201.614 67.5942 201.958 68.4071C202.405 68.7468 202.702 68.835 203.286 68.7542C203.327 68.7487 203.366 68.7416 203.404 68.734C208.105 66.509 213.383 58.9453 215.12 54.1171C215.393 53.3561 215.762 52.1601 215.421 51.3636C215.28 51.0326 215.073 50.8077 214.733 50.6997C214.42 50.6009 214.014 50.6458 213.689 50.6577ZM74.6741 37.16C72.5092 33.5888 68.1016 31.7658 64.0225 32.1635C65.2172 32.9716 67.8916 33.5948 69.434 34.3958C70.3908 34.8924 74.0708 37.0522 74.6741 37.16Z" fill="#9F021D"/>
<path d="M64.0225 32.1635C68.1016 31.7658 72.5092 33.5889 74.6741 37.16C74.0708 37.0523 70.3908 34.8924 69.434 34.3959C67.8916 33.5949 65.2172 32.9717 64.0225 32.1635Z" fill="#9F021D"/>
<path d="M311.026 24.9131C314.246 21.1903 319.961 15.7297 324.937 20.0257C325.027 20.1046 325.116 20.186 325.203 20.27C325.223 21.0657 325.267 22.836 325.138 23.5401C324.473 27.1166 321.008 32.0338 318.637 34.6065C315.377 38.1449 306.405 44.5176 301.805 46.2107C298.021 52.3502 295.521 57.2224 289.631 62.0338C288.131 63.2591 286.344 64.4342 285.025 65.5196C289.368 67.4989 293.521 70.1165 297.656 72.5133L310.763 79.9493C322.843 86.9118 337.751 95.6508 352.042 90.152C359.196 87.3993 367.072 81.5275 368.818 73.6268C367.128 69.412 361.957 66.7838 362.951 62.334C363.096 61.6792 364.102 61.0326 364.695 60.7894C366.855 59.9072 368.183 61.1916 369.461 62.85C371.9 59.6503 375.214 58.8681 376.171 63.5607C375.181 67.2753 372.704 69.0708 370.527 72.0463C369.357 73.564 369.079 75.7933 368.255 77.4094C361.079 91.4596 342.204 96.1145 327.802 91.8538C311.2 86.943 297.34 75.7702 282.577 67.01C277.931 69.6855 270.552 71.0687 265.272 69.7383C261.055 68.6762 258.889 64.4182 263.653 62.1392C270.371 58.9255 276.763 62.2539 283.063 64.4393C287.288 60.7724 292.064 53.4507 294.62 48.3601C294.718 48.1493 294.616 47.698 294.579 47.4365C295.571 47.0288 298.891 41.1009 299.636 39.8217C302.718 34.5252 306.376 30.015 310.4 25.4247C310.686 24.9951 310.537 25.1258 311.026 24.9131ZM302.308 45.0078L302.426 44.9596C309.684 41.9582 318.569 34.262 322.351 27.3648C323.566 25.1463 323.39 24.9488 324.208 22.983C324.248 23.3441 324.258 23.7948 324.465 24.0792C324.763 23.3821 324.88 22.6213 324.809 21.8669C324.751 21.3301 324.486 20.3792 323.987 20.114C318.805 17.3589 315.559 22.6491 312.799 26.1071C312.678 26.311 312.494 26.5744 312.451 26.7969C309.006 31.3526 305.094 39.7714 302.308 45.0078ZM275.295 68.5731C277.243 67.9481 278.969 66.9958 280.845 66.2167C276.815 63.9431 271.728 61.7734 266.983 62.1367C265.318 62.4309 263.259 62.8734 262.226 64.3623C261.898 64.8346 261.766 65.3571 261.878 65.9246C262.064 66.8784 262.839 67.6531 263.63 68.1545C266.3 69.847 270.697 69.6942 273.691 69.0085C274.23 68.881 274.766 68.7357 275.295 68.5731Z" fill="#9F021D"/>
<path d="M312.799 26.1072C313.774 27.096 315.123 28.3928 315.918 29.4742C314.371 28.6895 313.654 28.0966 312.451 26.797C312.494 26.5745 312.677 26.3111 312.799 26.1072Z" fill="#9F021D"/>
<path d="M312.204 63.3802C309.918 66.0059 304.568 72.8845 301.275 68.3029C298.129 63.9232 304.475 55.401 308.068 52.906C310.262 51.3814 315.323 47.7015 317.722 50.321C318.469 51.1357 318.119 52.6779 317.97 53.6849C318.745 52.339 319.488 51.1786 320.342 49.8797C322.046 50.0271 323.2 49.883 324.859 49.6438C323.943 50.7303 321.674 54.1929 321.027 55.4426C319.752 57.9092 313.946 66.042 314.603 68.4392C316.568 70.1118 323.212 60.991 324.571 59.3905C324.612 59.1609 323.351 62.6653 323.573 62.3226L323.283 62.2589C321.255 64.5337 315.367 73.0999 312.2 68.4052C311.258 67.0117 311.852 64.8884 312.204 63.3802ZM305.774 68.3174C310.083 65.5573 316.148 58.0002 317.231 52.9305C317.384 52.2129 317.382 51.6042 317.051 50.9376C316.374 50.3809 315.932 50.4304 315.087 50.5136C314.996 50.5229 314.903 50.5326 314.81 50.5428C311.047 52.1322 305.745 60.9111 304.23 64.647C303.812 65.677 303.272 67.1026 303.723 68.1947C303.798 68.3793 304.021 68.4944 304.179 68.6143C304.779 68.7017 305.223 68.5183 305.774 68.3174Z" fill="#9F021D"/>
<path d="M223.736 56.63C224.641 55.6586 225.677 54.6556 226.426 53.5604C230.119 48.1589 240.949 27.0148 247.241 26.772C247.842 26.7488 248.447 26.9144 248.9 27.3295C249.447 27.833 249.6 28.597 249.606 29.3094C249.636 33.5523 244.665 39.1071 241.885 41.8958C239.064 44.7247 235.082 47.2449 232.658 50.1804C231.588 51.4764 230.776 53.0855 229.945 54.5481C229.285 55.705 228.467 56.9373 228.069 58.2068L228.808 58.5772C226.205 61.6961 223.415 66.3319 221.352 69.8028C219.811 69.7248 218.268 69.7947 216.742 70.0113C218.916 66.4849 222.388 60.986 224.235 57.33L224.496 57.1435C223.914 56.9532 224.08 57.0886 223.736 56.63ZM234.462 47.3861C236.948 45.5594 250.416 33.4088 248.213 28.0191C248.157 27.8815 247.757 27.6887 247.593 27.6192C243.95 29.1837 242.401 32.6399 240.411 35.8503C238.116 39.5568 236.308 43.5697 234.071 47.3037L234.079 47.6026C234.15 47.5647 234.419 47.4275 234.462 47.3861Z" fill="#9F021D"/>
<path d="M343.014 60.5281C342.022 62.1934 339.814 66.0854 340.978 68.1377C341.198 68.5276 342.364 69.1756 342.859 69.1518C349.176 68.8458 354.567 62.4663 358.678 58.2381C360.081 56.8939 361.652 54.0778 363.237 53.0569C369.254 49.2105 375.43 44.955 382.937 45.7986C387.171 46.274 391.253 49.6873 390.59 54.2437C390.317 56.0707 389.329 57.7141 387.844 58.8106C382.606 62.6615 377.171 57.71 379.334 56.2784C380.143 56.4988 381.21 57.7785 382.101 58.2841C384.748 59.7848 387.916 57.6386 389.319 55.3374C391.071 52.4673 388.776 49.0879 386.166 47.6683C383.841 46.4046 380.127 46.2098 377.573 46.9528L377.571 47.1363L378.665 47.3899C378.006 47.4327 377.258 47.3036 376.857 47.8482C373.419 48.2358 371.368 49.1612 368.332 50.7957L368.187 51.0138L368.937 51.4442C363.78 52.3659 362.433 55.4132 359.312 58.6977C355.112 63.1154 346.43 73.1317 339.643 69.1603C337.147 67.7055 337.451 64.0911 337.928 61.5692C335.42 65.567 331.812 71.1186 326.188 69.8938C327.222 69.7186 327.286 69.7654 328.183 69.1797C332.493 68.0166 333.698 66.1272 336.223 62.6833C339.814 57.7864 342.376 53.3961 347.948 50.5065C352.672 48.0574 356.665 48.8312 353.403 54.7014C351.504 57.9241 346.744 59.8844 343.014 60.5281ZM343.395 59.6101L345.125 59.2257C348.265 58.0692 351.74 55.3349 353.171 52.2357C353.368 51.811 353.519 51.3955 353.472 50.9198C353.211 50.4945 353.006 50.2593 352.49 50.138C352.237 50.079 351.929 50.0991 351.674 50.1097C348.041 52.1818 345.547 56.1485 343.395 59.6101Z" fill="#9F021D"/>
<path d="M258.34 37.4744C260.258 37.5077 261.246 37.386 263.151 36.9858C261.567 39.618 259.968 42.0617 258.274 44.6265C259.378 44.6656 265.407 44.5621 265.776 44.7648L265.699 45.0432L265.865 44.8482L265.544 44.6983L265.384 45.1813C262.804 45.9881 260.507 45.6554 257.8 45.5262C255.48 49.0379 244.547 64.9546 245.249 68.1431C245.298 68.3603 245.431 68.5502 245.566 68.7232C249.269 70.1306 256.509 58.746 257.352 58.7547C257.646 60.6708 244.557 76.5082 242.593 66.9865C242.158 64.8708 243.583 61.9401 244.36 59.9904C244.399 59.9045 244.401 59.6913 244.408 59.5842L243.935 59.1623C247.338 54.8083 250.511 50.2794 253.44 45.5939C252.576 45.5966 248.024 45.8626 247.595 45.7457L247.587 45.3867C248.303 44.6645 249.718 44.6619 250.694 44.6583C251.785 44.6621 252.875 44.6768 253.964 44.7026C255.352 42.5354 257.271 39.7091 258.34 37.4744Z" fill="#9F021D"/>
<path d="M294.62 48.3602C294.717 48.4099 288.552 48.6001 287.893 48.6912C281.321 48.8771 270.986 44.586 269.847 37.4685C267.654 23.7765 283.695 17.5482 294.964 18.7206C301.082 19.3568 305.204 21.3076 311.026 24.9131C310.537 25.1259 310.686 24.9952 310.4 25.4248C309.543 24.5512 308.354 23.9831 307.356 23.3903C298.272 17.9926 283.888 18.0724 276.328 26.0581C265.62 37.3705 275.491 48.2974 288.554 47.9086C290.082 47.8631 293.516 47.3641 294.579 47.4366C294.616 47.6981 294.718 48.1494 294.62 48.3602Z" fill="#9F021D"/>
<path d="M29.7859 71.7932C18.4982 71.8535 9.94492 63.4205 12.895 51.9267C14.8407 44.3463 18.8284 39.7158 25.4968 35.6998C36.1277 29.297 48.4114 28.3767 60.2767 31.2091L59.7827 31.4437C59.8556 31.7459 59.8815 31.7764 60.095 32.0035L59.738 32.0389C57.0521 30.4839 46.8839 30.4909 43.7201 30.883C34.0015 32.0869 21.2738 38.2848 16.2796 47.1418C9.07902 59.9117 15.9499 70.2273 29.9321 71.1003L29.7859 71.7932Z" fill="#9F021D"/>
<path d="M228.069 58.2067C230.482 55.7434 234.715 49.8553 238.395 49.7855C239.031 49.7733 239.601 49.9935 240.058 50.4409C240.709 51.0786 240.93 51.9109 240.935 52.8009C240.974 58.404 231.799 66.4875 233.28 68.6887C235.904 69.3891 242.308 61.1759 243.934 59.1623L244.408 59.5841C244.4 59.6913 244.399 59.9045 244.36 59.9903C242.374 61.4287 236.022 71.266 232.704 69.9075C224.075 66.3764 240.071 53.8971 238.302 51.1208C235.755 50.278 230.179 56.8947 228.808 58.5771L228.069 58.2067Z" fill="#9F021D"/>
<path d="M324.571 59.3906C326.406 55.9733 332.932 47.4051 338.248 49.338C341.596 51.1758 338.327 55.7541 335.937 56.318C332.364 57.1613 334.059 51.4907 336.784 52.4948C337.482 52.7515 337.799 52.7041 338.383 52.2812C338.675 51.5716 338.648 51.865 338.47 51.0946C337.42 49.7009 334.993 50.481 334.096 51.5373C330.629 55.6257 327.298 61.4694 326.265 66.7617C325.95 68.37 326.959 68.7613 328.183 69.1797C327.286 69.7654 327.222 69.7186 326.188 69.8939C323.15 68.0143 323.034 65.5307 323.573 62.3226C323.351 62.6654 324.612 59.161 324.571 59.3906Z" fill="#9F021D"/>
<path d="M140.573 39.2159C142.889 39.2608 141.74 40.0301 143.018 41.0259C143.612 40.7452 144.249 40.4785 144.904 40.385C145.443 40.3082 145.728 40.4231 146.139 40.7404C146.305 41.0969 146.289 41.4094 146.224 41.7907C146.017 42.9985 145.171 43.5987 144.24 44.2666C142.938 45.0024 141.663 45.7568 140.411 46.5764C140.276 44.8722 139.498 43.3229 139.414 41.6632C139.36 40.5821 139.888 39.9692 140.573 39.2159Z" fill="#9F021D"/>
<path d="M200.374 39.2405C200.713 39.2412 201.148 39.2097 201.471 39.3053C202.084 39.4857 202.333 40.2361 202.606 40.7606C203.234 40.8162 203.897 40.48 204.524 40.3945C205.03 40.3256 205.45 40.3761 205.87 40.6885C206.001 40.9719 206.061 41.2011 205.995 41.5125C205.715 42.8458 204.969 43.5025 203.89 44.2236C202.629 44.9043 201.378 45.5713 200.202 46.3893C200.098 44.719 199.336 43.2124 199.27 41.5883C199.228 40.5446 199.703 39.9614 200.374 39.2405Z" fill="#9F021D"/>
<path d="M378.665 47.3899C383.888 48.5447 382.293 54.7287 377.163 52.9518C373.528 51.6922 372.911 50.8805 368.937 51.4442L368.187 51.0138L368.332 50.7956C368.226 50.7846 371.229 50.6018 371.25 50.595C374.409 49.6114 378.273 54.7517 380.193 51.0968C380.547 49.1911 378.309 48.2499 376.857 47.8481C377.257 47.3036 378.006 47.4326 378.665 47.3899Z" fill="#9F021D"/>
<path d="M223.736 56.6299C224.08 57.0885 223.914 56.9531 224.496 57.1434L224.235 57.3299C222.01 59.1627 214.583 67.7187 212.096 68.5576C211.885 68.3235 211.872 68.1448 211.794 67.8388C213.324 67.7156 222.182 58.2332 223.736 56.6299Z" fill="#9F021D"/>
<path d="M155.457 50.0022C155.998 50.2109 156.52 50.4823 156.768 51.0535C156.096 51.7288 156.251 51.4243 156.032 52.3456C155.807 51.1489 155.786 51.1512 154.756 50.6032C155.1 50.4181 155.197 50.2879 155.457 50.0022Z" fill="#9F021D"/>
</svg>
